<?xml version="1.0" encoding="utf-8"?>
<!-- Generator: Adobe Illustrator 24.0.3, SVG Export Plug-In . SVG Version: 6.00 Build 0)  -->
<svg version="1.1" id="Layer_1" xmlns="http://www.w3.org/2000/svg" xmlns:xlink="http://www.w3.org/1999/xlink" x="0px" y="0px"
	 viewBox="0 0 70 70" style="enable-background:new 0 0 70 70;" xml:space="preserve">
<style type="text/css">
	.st0{fill:#FFBE00;}
	.st1{fill:#F4502A;}
	.st2{fill:#C29100;}
	.st3{fill:#BA3D20;}
	.st4{fill:#FFFFFF;}
	.st5{fill:#1CA4BA;}
	.st6{fill:#157D8E;}
</style>
<g>
	<path class="st0" d="M35,70c-10,0-19.5-4.3-26.1-11.7C3.2,51.9,0,43.6,0,35C0,15.7,15.7,0,35,0c8.6,0,16.9,3.2,23.3,8.9
		C65.7,15.5,70,25,70,35C70,54.3,54.3,70,35,70"/>
	<path class="st1" d="M64.7,35c0,2.7-0.4,5.4-1.1,7.9c-0.1,0.3-0.2,0.7-0.3,1c-1.8,5.9-5.4,11-10.2,14.6c-1.4,1.1-2.8,2-4.4,2.8
		c-1.3,0.7-2.6,1.3-4,1.7c-2.1,0.7-4.4,1.2-6.7,1.5c0,0,0,0-0.1,0c-1,0.1-2,0.1-3,0.1c-0.1,0-0.2,0-0.4,0
		c-8.7-0.1-16.4-3.9-21.8-9.9c0,0-0.1-0.1-0.1-0.2C8.1,49.4,5.3,42.5,5.3,35C5.3,18.6,18.6,5.3,35,5.3c7.5,0,14.4,2.8,19.6,7.4
		c0,0,0.1,0.1,0.2,0.1C60.9,18.3,64.7,26.2,64.7,35"/>
	<path class="st2" d="M12.7,54.6c0.7,0.8,1.4,1.5,2.1,2.2c-0.7-0.6-1.4-1.3-2-2C12.8,54.7,12.8,54.7,12.7,54.6 M12.3,54.1
		C12.3,54.1,12.3,54.1,12.3,54.1C12.3,54.1,12.3,54.1,12.3,54.1 M12.2,54C12.2,54,12.2,54,12.2,54C12.2,54,12.2,54,12.2,54 M12.1,54
		C12.2,54,12.2,54,12.1,54C12.2,54,12.2,54,12.1,54 M12.1,53.9C12.1,53.9,12.1,53.9,12.1,53.9C12.1,53.9,12.1,53.9,12.1,53.9
		 M20.6,9C11.5,14.1,5.3,23.8,5.3,35c0,7.2,2.5,13.7,6.8,18.9C7.9,48.7,5.3,42.2,5.3,35C5.3,23.8,11.5,14.1,20.6,9"/>
	<path class="st3" d="M35,5.3c-5.2,0-10.1,1.4-14.4,3.7C11.5,14.1,5.3,23.8,5.3,35c0,7.2,2.5,13.7,6.8,18.9c0,0,0,0,0,0
		c0,0,0,0,0,0.1c0,0,0,0,0,0c0,0,0,0,0,0c0,0,0,0,0,0c0,0,0,0,0,0c0,0,0,0,0,0.1c0,0,0,0,0,0c0.1,0.2,0.3,0.3,0.4,0.5
		c0,0,0.1,0.1,0.1,0.1c0.6,0.7,1.3,1.4,2,2c0.3,0.3,0.6,0.6,1,0.8c-4.4-5.2-7-11.9-7-19.2c0-16.4,13.3-29.7,29.7-29.7
		c7.3,0,14,2.6,19.2,7C52.2,9.4,44.1,5.3,35,5.3"/>
	<path class="st2" d="M48.9,61.3C48.8,61.3,48.8,61.3,48.9,61.3C48.8,61.3,48.8,61.3,48.9,61.3 M48.9,61.2
		C48.9,61.2,48.9,61.2,48.9,61.2C48.9,61.2,48.9,61.2,48.9,61.2 M49,61.2C49,61.2,49,61.2,49,61.2C49,61.2,49,61.2,49,61.2
		 M49.1,61.1C49.1,61.1,49.1,61.2,49.1,61.1C49.1,61.2,49.1,61.1,49.1,61.1 M49.2,61.1C49.2,61.1,49.1,61.1,49.2,61.1
		C49.1,61.1,49.2,61.1,49.2,61.1 M52.7,58.8c-1.1,0.8-2.3,1.6-3.5,2.2C50.4,60.4,51.6,59.7,52.7,58.8 M54.5,57.4
		C54.5,57.4,54.5,57.4,54.5,57.4C54.5,57.4,54.5,57.4,54.5,57.4 M54.6,57.3C54.6,57.3,54.6,57.3,54.6,57.3
		C54.6,57.3,54.6,57.3,54.6,57.3 M54.7,57.2C54.7,57.2,54.7,57.2,54.7,57.2C54.7,57.2,54.7,57.2,54.7,57.2 M54.8,57.1
		C54.8,57.1,54.8,57.1,54.8,57.1C54.8,57.1,54.8,57.1,54.8,57.1 M54.9,57.1C54.8,57.1,54.8,57.1,54.9,57.1
		C54.8,57.1,54.8,57.1,54.9,57.1 M54.9,57C54.9,57,54.9,57,54.9,57C54.9,57,54.9,57,54.9,57 M55,56.9C55,56.9,55,57,55,56.9
		C55,57,55,56.9,55,56.9 M55.1,56.9C55.1,56.9,55,56.9,55.1,56.9C55,56.9,55.1,56.9,55.1,56.9 M55.2,56.7c0,0-0.1,0.1-0.1,0.1
		C55.1,56.8,55.2,56.8,55.2,56.7 M57.2,54.7c-0.6,0.7-1.3,1.4-2,2.1C55.9,56.1,56.6,55.4,57.2,54.7 M57.4,54.5
		c0,0.1-0.1,0.1-0.1,0.2C57.3,54.6,57.3,54.6,57.4,54.5 M57.4,54.5C57.4,54.5,57.4,54.5,57.4,54.5C57.4,54.5,57.4,54.5,57.4,54.5
		 M57.5,54.4C57.5,54.4,57.4,54.4,57.5,54.4C57.4,54.4,57.5,54.4,57.5,54.4 M57.6,54.3C57.5,54.3,57.5,54.4,57.6,54.3
		C57.5,54.4,57.5,54.3,57.6,54.3 M57.6,54.3C57.6,54.3,57.6,54.3,57.6,54.3C57.6,54.3,57.6,54.3,57.6,54.3 M57.6,54.2
		C57.6,54.2,57.6,54.2,57.6,54.2C57.6,54.2,57.6,54.2,57.6,54.2 M57.7,54.1C57.7,54.2,57.7,54.2,57.7,54.1
		C57.7,54.2,57.7,54.2,57.7,54.1 M57.8,54.1C57.8,54.1,57.7,54.1,57.8,54.1C57.7,54.1,57.8,54.1,57.8,54.1 M57.8,54
		C57.8,54,57.8,54,57.8,54C57.8,54,57.8,54,57.8,54 M57.9,53.9C57.9,53.9,57.9,54,57.9,53.9C57.9,54,57.9,53.9,57.9,53.9 M58,53.8
		C58,53.8,58,53.8,58,53.8C58,53.8,58,53.8,58,53.8 M58,53.7C58,53.7,58,53.7,58,53.7C58,53.7,58,53.7,58,53.7 M63.3,44
		C63.3,44,63.3,44,63.3,44C63.3,44,63.3,44,63.3,44"/>
	<path class="st3" d="M26.3,44.6v5.5h5.5L26.3,44.6 M36.9,16.2L34.5,43l-5.8-1.8l8.9,8.9h6.3v-5.5h3.8v7l0,0c0,1.2-1,2.2-2.2,2.2
		H24.7c-0.6,0-1.1-0.2-1.5-0.6l11.4,11.4c0.1,0,0.2,0,0.4,0c1,0,2,0,3-0.1c0,0,0,0,0.1,0c2.3-0.2,4.6-0.7,6.7-1.5
		c1.4-0.5,2.7-1.1,4-1.7c0,0,0.1,0,0.1,0c0,0,0,0,0,0c0,0,0,0,0,0c0,0,0,0,0,0c0,0,0,0,0,0c0,0,0,0,0.1,0c0,0,0,0,0,0c0,0,0,0,0.1,0
		c0,0,0,0,0,0c0,0,0,0,0.1,0c0,0,0,0,0,0c1.2-0.7,2.4-1.4,3.5-2.2c0.6-0.5,1.2-1,1.8-1.5c0,0,0,0,0,0c0,0,0,0,0.1-0.1c0,0,0,0,0,0
		c0,0,0.1-0.1,0.1-0.1c0,0,0,0,0,0c0,0,0,0,0,0c0,0,0,0,0,0c0,0,0,0,0,0c0,0,0,0,0,0c0,0,0,0,0,0c0,0,0,0,0,0c0,0,0,0,0,0
		c0,0,0,0,0,0c0,0,0,0,0,0c0,0,0,0,0,0c0,0,0,0,0,0c0,0,0.1-0.1,0.1-0.1c0,0,0,0,0,0c0.7-0.7,1.4-1.3,2-2.1c0,0,0,0,0,0
		c0-0.1,0.1-0.1,0.1-0.2c0,0,0,0,0,0c0,0,0,0,0,0c0,0,0,0,0,0c0,0,0,0,0,0c0,0,0,0,0,0c0,0,0.1-0.1,0.1-0.1c0,0,0,0,0,0c0,0,0,0,0,0
		c0,0,0,0,0,0c0,0,0,0,0,0c0,0,0,0,0,0c0,0,0,0,0,0c0,0,0,0,0,0c0,0,0,0,0,0c0,0,0,0,0,0c0,0,0,0,0,0c0,0,0,0,0,0c0,0,0,0,0,0
		c0,0,0.1-0.1,0.1-0.1c0,0,0,0,0,0c0,0,0,0,0-0.1c0,0,0,0,0,0c2.3-2.9,4.1-6.2,5.3-9.8c0,0,0,0,0,0c0,0,0-0.1,0-0.1
		c0.1-0.3,0.2-0.6,0.3-1L36.9,16.2"/>
	<polygon class="st4" points="35,47.6 28.6,41.2 33.1,41.2 33.1,16.2 36.9,16.2 36.9,41.2 41.4,41.2 	"/>
	<path class="st5" d="M47.5,44.6v7c0,1.2-1,2.2-2.2,2.2H24.7c-1.2,0-2.2-1-2.2-2.2v-7h3.8v5.5h17.5v-5.5H47.5"/>
	<path class="st6" d="M47.5,44.6h-3.8v5.5h-6.3l3.8,3.8h4.1c1.2,0,2.2-1,2.2-2.2V44.6"/>
</g>
</svg>
