<?xml version="1.0" encoding="utf-8"?>
<!-- Generator: Adobe Illustrator 24.0.3, SVG Export Plug-In . SVG Version: 6.00 Build 0)  -->
<svg version="1.1" id="Layer_2" xmlns="http://www.w3.org/2000/svg" xmlns:xlink="http://www.w3.org/1999/xlink" x="0px" y="0px"
	 viewBox="0 0 70 70" style="enable-background:new 0 0 70 70;" xml:space="preserve">
<style type="text/css">
	.st0{fill:#FFBE00;}
	.st1{fill:#F4502A;}
	.st2{fill:#C29100;}
	.st3{fill:#BA3D20;}
	.st4{fill:#FFFFFF;}
	.st5{fill:#1CA4BA;}
	.st6{fill:#157D8E;}
</style>
<g>
	<path class="st0" d="M35,70c-10,0-19.5-4.3-26.1-11.7C3.2,51.9,0,43.6,0,35C0,15.7,15.7,0,35,0c8.6,0,16.9,3.2,23.3,8.9
		C65.7,15.5,70,25,70,35C70,54.3,54.3,70,35,70"/>
	<path class="st1" d="M64.7,35c0,1.2-0.1,2.4-0.2,3.5c-0.1,0.4-0.1,0.9-0.2,1.3c-0.2,1.4-0.6,2.8-1,4.1C59.8,55,50,63.4,38,64.5
		c-1,0.1-2,0.1-3,0.1c-1.4,0-2.8-0.1-4.2-0.3c-0.6-0.1-1.2-0.2-1.8-0.3c-6.4-1.3-12-4.6-16.2-9.3c0,0-0.1-0.1-0.1-0.2
		C8.1,49.4,5.3,42.5,5.3,35C5.3,18.6,18.6,5.3,35,5.3c7.5,0,14.4,2.8,19.6,7.4c0,0,0.1,0.1,0.2,0.1C60.9,18.3,64.7,26.2,64.7,35"/>
	<path class="st2" d="M15.2,57.1C15.2,57.1,15.2,57.1,15.2,57.1C15.2,57.1,15.2,57.1,15.2,57.1 M12.7,54.6c0.8,0.9,1.6,1.7,2.5,2.5
		c-0.8-0.7-1.6-1.5-2.3-2.3C12.8,54.7,12.8,54.7,12.7,54.6 M11.8,53.5C11.8,53.5,11.8,53.5,11.8,53.5C11.8,53.5,11.8,53.5,11.8,53.5
		 M11.7,53.5C11.7,53.5,11.8,53.5,11.7,53.5C11.8,53.5,11.7,53.5,11.7,53.5 M11.7,53.4C11.7,53.4,11.7,53.4,11.7,53.4
		C11.7,53.4,11.7,53.4,11.7,53.4 M11.6,53.3C11.6,53.3,11.7,53.3,11.6,53.3C11.7,53.3,11.6,53.3,11.6,53.3 M11.6,53.2
		C11.6,53.3,11.6,53.3,11.6,53.2C11.6,53.3,11.6,53.3,11.6,53.2 M21.5,8.5C11.9,13.4,5.3,23.4,5.3,35c0,6.9,2.3,13.2,6.3,18.2
		c-3.9-5-6.3-11.4-6.3-18.2C5.3,23.5,11.9,13.4,21.5,8.5"/>
	<path class="st3" d="M35,5.3c-4.8,0-9.4,1.2-13.5,3.2C11.9,13.4,5.3,23.5,5.3,35c0,6.9,2.3,13.2,6.3,18.2c0,0,0,0,0,0
		c0,0,0,0,0,0.1c0,0,0,0,0,0c0,0,0,0,0,0.1c0,0,0,0,0,0c0,0,0,0,0,0c0,0,0,0,0,0c0,0,0,0,0,0c0,0,0,0,0,0.1c0,0,0,0,0,0
		c0.3,0.4,0.6,0.7,0.9,1.1c0,0,0.1,0.1,0.1,0.1c0.7,0.8,1.5,1.6,2.3,2.3c0,0,0,0,0,0c0,0,0,0,0,0c0.2,0.2,0.4,0.4,0.6,0.5
		c-4.4-5.2-7-11.9-7-19.2c0-16.4,13.3-29.7,29.7-29.7c7.3,0,14,2.6,19.2,7C52.2,9.4,44.1,5.3,35,5.3"/>
	<path class="st3" d="M49.9,23.9v4.7v25.1H20.1l10.7,10.7c1.4,0.2,2.8,0.3,4.2,0.3c1,0,2,0,3-0.1c12-1.2,21.9-9.5,25.4-20.7
		c0.4-1.3,0.7-2.7,1-4.1c0.1-0.4,0.1-0.8,0.2-1.3L49.9,23.9 M35,13.7l-6.4,6.4l6,6l0.5,3.6l-0.3-0.1l-5.6-5.6v3.8h-5.4v22.3h17.4
		h4.9V27.7h-5.4v-3.8h4.5h0L35,13.7"/>
	<polygon class="st4" points="35,13.7 41.4,20.1 36.9,20.1 36.9,41.8 33.1,41.8 33.1,20.1 28.6,20.1 	"/>
	<polyline class="st5" points="49.9,23.9 49.9,53.7 20.1,53.7 20.1,23.9 29.2,23.9 29.2,27.7 23.9,27.7 23.9,49.9 46.1,49.9 
		46.1,27.7 40.8,27.7 40.8,23.9 49.9,23.9 	"/>
	<polyline class="st6" points="45.2,23.9 40.8,23.9 40.8,27.7 46.1,27.7 46.1,49.9 41.2,49.9 45,53.7 49.9,53.7 49.9,28.6 
		45.2,23.9 	"/>
</g>
</svg>
