<?xml version="1.0" encoding="utf-8"?>
<!-- Generator: Adobe Illustrator 24.0.3, SVG Export Plug-In . SVG Version: 6.00 Build 0)  -->
<svg version="1.1" id="Layer_1" xmlns="http://www.w3.org/2000/svg" xmlns:xlink="http://www.w3.org/1999/xlink" x="0px" y="0px"
	 viewBox="0 0 70 70" style="enable-background:new 0 0 70 70;" xml:space="preserve">
<style type="text/css">
	.st0{fill:#E63521;}
	.st1{fill:#6CB4E4;}
	.st2{fill:#C29100;}
	.st3{fill:#2A5DA9;}
	.st4{opacity:0.1;enable-background:new    ;}
	.st5{fill:#E2373C;}
	.st6{fill:#F5B6A4;}
</style>
<g id="Layer_2_1_">
	<g>
		<path class="st0" d="M35,70c-10,0-19.5-4.3-26.1-11.7C3.2,51.9,0,43.6,0,35C0,15.7,15.7,0,35,0c8.6,0,16.9,3.2,23.3,8.9
			C65.7,15.5,70,25,70,35C70,54.3,54.3,70,35,70"/>
		<path class="st1" d="M64.7,35c0,1.2-0.1,2.4-0.2,3.5c-0.1,0.4-0.1,0.9-0.2,1.3c-0.2,1.4-0.6,2.8-1,4.1C59.8,55,50,63.4,38,64.5
			c-1,0.1-2,0.1-3,0.1c-1.4,0-2.8-0.1-4.2-0.3c-0.6-0.1-1.2-0.2-1.8-0.3c-6.4-1.3-12-4.6-16.2-9.3c0,0-0.1-0.1-0.1-0.2
			c-4.6-5.1-7.4-12-7.4-19.5C5.3,18.6,18.6,5.3,35,5.3c7.5,0,14.4,2.8,19.6,7.4c0,0,0.1,0.1,0.2,0.1C60.9,18.3,64.7,26.2,64.7,35"/>
		<path class="st2" d="M15.2,57.1L15.2,57.1L15.2,57.1 M12.7,54.6c0.8,0.9,1.6,1.7,2.5,2.5c-0.8-0.7-1.6-1.5-2.3-2.3
			C12.8,54.7,12.8,54.7,12.7,54.6 M11.8,53.5L11.8,53.5L11.8,53.5 M11.7,53.5C11.7,53.5,11.8,53.5,11.7,53.5
			C11.8,53.5,11.7,53.5,11.7,53.5 M11.7,53.4L11.7,53.4L11.7,53.4 M11.6,53.3C11.6,53.3,11.7,53.3,11.6,53.3
			C11.7,53.3,11.6,53.3,11.6,53.3 M11.6,53.2C11.6,53.3,11.6,53.3,11.6,53.2C11.6,53.3,11.6,53.3,11.6,53.2 M21.5,8.5
			C11.9,13.4,5.3,23.4,5.3,35c0,6.9,2.3,13.2,6.3,18.2c-3.9-5-6.3-11.4-6.3-18.2C5.3,23.5,11.9,13.4,21.5,8.5"/>
		<path class="st3" d="M35,5.3c-4.8,0-9.4,1.2-13.5,3.2C11.9,13.4,5.3,23.5,5.3,35c0,6.9,2.3,13.2,6.3,18.2l0,0c0,0,0,0,0,0.1l0,0
			c0,0,0,0,0,0.1l0,0l0,0l0,0l0,0c0,0,0,0,0,0.1l0,0c0.3,0.4,0.6,0.7,0.9,1.1l0.1,0.1c0.7,0.8,1.5,1.6,2.3,2.3l0,0l0,0
			c0.2,0.2,0.4,0.4,0.6,0.5c-4.4-5.2-7-11.9-7-19.2c0-16.4,13.3-29.7,29.7-29.7c7.3,0,14,2.6,19.2,7C52.2,9.4,44.1,5.3,35,5.3"/>
	</g>
</g>
<g id="Layer_3">
	<path class="st4" d="M48.2,18.6L48,18.5l0,0c-0.5-0.4-1.2-0.7-1.9-0.9L45,16.5l0,0c-0.7-0.7-1.6-1.1-2.5-1.1
		c-0.4,0-0.7,0.1-1.1,0.2c-0.5-0.7-1.4-1.1-2.2-1.1c-1.6,0-2.9,1.3-2.9,2.8v0.3l-2.2-2.2c-0.1-0.1-0.1-0.1-0.2-0.2l0.1,0.1l0,0
		c-0.5-0.4-1.1-0.7-1.9-0.7c-0.9,0-1.7,0.4-2.2,1.1c-0.3-0.1-0.7-0.2-1.1-0.2c-1.4,0-2.7,0.8-3.3,2c-2,0.2-3.5,1.8-3.6,3.7
		c-1.9,0.3-3.3,1.9-3.3,3.9c0,0.5,0.1,0.9,0.2,1.4c-1.5,1-2.4,2.7-2.4,4.5c0,1,0.3,1.9,0.8,2.8c-0.5,0.8-0.8,1.6-0.8,2.5
		c0,1.6,0.8,3.1,2.2,3.9c-0.4,0.7-0.6,1.5-0.6,2.3c0,2.3,1.6,4.3,3.8,5c0,1,0.4,1.9,1.1,2.6l0,0l0.1,0.1l16.7,16.7
		c14.7-1.8,26.5-13.2,28.9-27.8L48.4,18.9C48.3,18.8,48.2,18.7,48.2,18.6z"/>
	<path class="st5" d="M54.8,31c0-1.8-0.9-3.5-2.4-4.5c0.2-0.4,0.2-0.9,0.2-1.4c0-1.9-1.4-3.5-3.3-3.9c-0.1-2-1.7-3.5-3.6-3.7
		c-0.6-1.2-1.9-2-3.3-2c-0.4,0-0.7,0.1-1.1,0.2c-0.5-0.7-1.4-1.1-2.2-1.1c-1.6,0-2.9,1.3-2.9,2.8v10c0,1.2,0.6,2.4,1.5,3.2
		c-0.9,0.8-1.5,2-1.5,3.3V40c0,0.7,0.2,1.5,0.5,2.1c-0.4,0.6-0.5,1.3-0.5,2.1V49c0,2.2,1.8,3.9,4,3.9c1.4,0,2.7-0.8,3.4-1.9
		c0.5,0.2,1.1,0.3,1.6,0.3c2.2,0,4-1.7,4-3.8c2.2-0.6,3.8-2.6,3.8-5c0-0.8-0.2-1.6-0.6-2.3c1.3-0.9,2.2-2.3,2.2-3.9
		c0-0.9-0.3-1.8-0.8-2.5C54.6,32.9,54.8,32,54.8,31z"/>
	<path class="st6" d="M52,39c-1-1.7-2.9-2-3.9-2.1c-0.2-0.8-0.7-1.6-1.4-2.1c-0.3-0.2-0.8-0.2-1,0.1s-0.2,0.7,0.1,1
		c0.6,0.5,1,1.2,1,2c0,1.4-1.2,2.6-2.6,2.6c-1.4,0-2.6-1.1-2.6-2.6c0-0.6,0.2-1.2,0.6-1.7l0,0c0.2,0,0.4-0.1,0.6-0.1
		c1.5-0.5,2.3-2.2,1.7-3.6c-0.1-0.4-0.5-0.5-0.9-0.4S43,32.6,43.2,33c0.3,0.7-0.1,1.6-0.9,1.9c-0.8,0.3-1.6-0.1-1.9-0.8
		c-0.1-0.4-0.5-0.5-0.9-0.4s-0.6,0.5-0.4,0.9c0.3,0.8,0.9,1.3,1.6,1.6c-0.3,0.6-0.5,1.2-0.5,1.9c0,2.2,1.8,4,4,4
		c2.1,0,3.7-1.5,4-3.5c0.9,0.1,2.4,0.4,2.9,1.8c0,0.1,0.1,0.1,0.1,0.2l0,0c0.5,0.6,0.7,1.4,0.7,2.2c0,1.6-1,2.9-2.4,3.5
		c-0.2-1.4-1.1-2.2-1.2-2.3c-0.3-0.3-0.7-0.3-1,0s-0.3,0.7,0,1c0,0,0.9,0.9,0.8,2.1v0.1v0.1c0,0.1,0,0.2,0,0.4
		c0,1.4-1.2,2.5-2.6,2.5c-0.3,0-0.7-0.1-1-0.2c0.3-0.8,0.4-2.1-0.6-3.4c0.5-0.8,0.5-1.8-0.1-2.5c-0.2-0.3-0.7-0.4-1-0.2
		s-0.4,0.7-0.2,1c0.3,0.4,0.2,1-0.2,1.3s-1,0.2-1.3-0.2c-0.2-0.3-0.7-0.4-1-0.2s-0.4,0.7-0.2,1c0.5,0.6,1.2,1,1.9,1
		c0.3,0,0.6-0.1,0.9-0.2c0.9,1.3,0.3,2.2,0.2,2.3c0,0-0.1,0.1-0.1,0.2c0,0,0,0,0,0.1c-0.3,1-1.3,1.7-2.4,1.7c-1.4,0-2.6-1.1-2.6-2.5
		v-4.8c0-0.3,0.1-0.7,0.2-1c0.6,0.4,1.6,0.9,3,0.9c0.1,0,0.1,0,0.2,0c0.4,0,0.7-0.3,0.7-0.7s-0.3-0.7-0.7-0.7l0,0
		c-0.1,0-0.1,0-0.2,0c-1.6,0-2.5-0.8-2.7-1c-0.3-0.5-0.5-1.1-0.5-1.7v-6.2c0-1.1,0.6-2.1,1.6-2.7l0,0l0,0c0.2-0.1,1.6-1,3,0.2
		c0.1,0.1,0.3,0.2,0.5,0.2s0.4-0.1,0.5-0.2c0.3-0.3,0.2-0.7-0.1-1c-1.6-1.4-3.4-1-4.4-0.5c-0.8-0.5-1.3-1.4-1.3-2.3v-10
		c0-0.8,0.6-1.4,1.4-1.4c0.5,0,0.9,0.3,1.2,0.7c-0.1,0.6-0.4,1.4-0.9,1.6c-0.3,0.2-0.4,0.6-0.2,1c0.1,0.2,0.4,0.3,0.6,0.3
		c0.1,0,0.2,0,0.4-0.1c0.9-0.5,1.3-1.8,1.5-2.4c0.2-0.1,0.5-0.1,0.7-0.1c0.9,0,1.8,0.6,2.1,1.5c0,0.4,0,1.9-0.9,2.9
		c-0.3,0.4-0.8,0.6-1.3,0.7c-0.2-0.7-0.7-1.4-1.4-1.6c-0.4-0.1-0.8,0.1-0.9,0.4c-0.1,0.4,0.1,0.8,0.4,0.9c0.4,0.1,0.7,0.6,0.5,1
		c-0.1,0.4-0.6,0.6-1,0.5s-0.8,0.1-0.9,0.4c-0.1,0.4,0.1,0.8,0.4,0.9c0.2,0.1,0.5,0.1,0.7,0.1c0.8,0,1.6-0.5,2-1.2
		c1-0.1,1.9-0.5,2.5-1.2c0.9-1,1.2-2.3,1.2-3.2c1.1,0.3,2,1.3,2,2.5c0,0.1,0,0.2,0,0.4c0,0.1,0,0.1,0,0.1c0,0.4-0.2,1.2-0.6,1.4
		c-0.3,0.2-0.4,0.6-0.2,1c0.1,0.2,0.4,0.3,0.6,0.3c0.1,0,0.3,0,0.4-0.1c0.7-0.4,1-1.2,1.1-1.9c1.1,0.3,2,1.3,2,2.5
		c0,0.2,0,0.4-0.1,0.6C50,25.2,48,24.9,46,26.3c-0.6-0.4-1.3-0.6-2-0.5c-0.9,0.1-1.7,0.5-2.3,1.1c-0.3,0.3-0.2,0.7,0.1,1
		s0.7,0.2,1-0.1c0.3-0.4,0.8-0.6,1.3-0.6s1,0.1,1.4,0.5c0.8,0.7,0.9,1.9,0.2,2.6c-0.3,0.3-0.2,0.7,0.1,1c0.1,0.1,0.3,0.2,0.5,0.2
		s0.4-0.1,0.5-0.2c1-1.1,1.1-2.7,0.3-3.9c2.3-1.3,4.1,0,4.2,0c0,0,0,0,0.1,0l0,0c1.4,0.7,2.2,2.1,2.2,3.6c0,0.5-0.1,1.1-0.3,1.6
		c-0.5-0.4-1.1-0.6-1.5-0.7c-0.3-1.1-1.1-2-2.2-2.4c-0.4-0.1-0.8,0.1-0.9,0.5c-0.1,0.4,0.1,0.8,0.5,0.9c0.8,0.2,1.3,0.9,1.3,1.7
		c0,0.7-0.3,1.3-0.9,1.7c-0.3,0.2-0.4,0.6-0.2,1c0.1,0.2,0.4,0.3,0.6,0.3c0.1,0,0.2,0,0.4-0.1c0.8-0.5,1.4-1.2,1.5-2.1
		c0.3,0.1,0.7,0.3,1,0.8l0,0l0,0c0.5,0.6,0.7,1.3,0.7,2.1C53.4,37.4,52.9,38.3,52,39z"/>
	<path class="st5" d="M17.2,33.7c-0.5,0.8-0.8,1.6-0.8,2.5c0,1.6,0.8,3.1,2.2,3.9c-0.4,0.7-0.6,1.5-0.6,2.3c0,2.3,1.6,4.3,3.8,5
		c0,2.1,1.8,3.8,4,3.8c0.6,0,1.1-0.1,1.6-0.3c0.7,1.2,2,1.9,3.4,1.9c2.2,0,4-1.8,4-3.9v-4.8c0-0.7-0.2-1.4-0.5-2.1
		c0.4-0.6,0.5-1.4,0.5-2.1v-6.2c0-1.3-0.5-2.4-1.5-3.3c0.9-0.8,1.5-1.9,1.5-3.2v-10c0-1.5-1.3-2.8-2.9-2.8c-0.9,0-1.7,0.4-2.2,1.1
		c-0.3-0.1-0.7-0.2-1.1-0.2c-1.4,0-2.7,0.8-3.3,2c-2,0.2-3.5,1.8-3.6,3.7c-1.9,0.3-3.3,1.9-3.3,3.9c0,0.5,0.1,0.9,0.2,1.4
		c-1.5,1-2.4,2.7-2.4,4.5C16.5,32,16.7,32.9,17.2,33.7z"/>
	<path class="st6" d="M17.9,36.3c0-0.8,0.3-1.5,0.7-2.1l0,0l0,0c0.3-0.5,0.7-0.7,1-0.8c0.2,0.9,0.7,1.7,1.5,2.1
		c0.1,0.1,0.2,0.1,0.4,0.1c0.2,0,0.5-0.1,0.6-0.3c0.2-0.3,0.1-0.8-0.2-1c-0.6-0.3-0.9-1-0.9-1.7c0-0.8,0.5-1.5,1.3-1.7
		c0.4-0.1,0.6-0.5,0.5-0.9s-0.5-0.6-0.9-0.5c-1.1,0.4-2,1.3-2.2,2.4c-0.4,0.1-1,0.2-1.5,0.7c-0.2-0.5-0.3-1-0.3-1.6
		c0-1.5,0.8-2.9,2.2-3.6l0,0c0,0,0,0,0.1,0c0.1-0.1,1.9-1.3,4.2,0c-0.7,1.2-0.7,2.8,0.3,3.9c0.1,0.2,0.3,0.2,0.5,0.2
		s0.3-0.1,0.5-0.2c0.3-0.3,0.3-0.7,0.1-1c-0.7-0.8-0.6-2,0.2-2.6c0.4-0.3,0.9-0.5,1.4-0.5s1,0.3,1.3,0.6c0.3,0.3,0.7,0.3,1,0.1
		c0.3-0.3,0.3-0.7,0.1-1c-0.6-0.7-1.4-1.1-2.3-1.1c-0.7,0-1.4,0.1-2,0.5c-2.1-1.3-4-1-5.3-0.5c-0.1-0.2-0.1-0.4-0.1-0.6
		c0-1.2,0.8-2.2,2-2.5c0.1,0.6,0.4,1.4,1.1,1.9c0.1,0.1,0.3,0.1,0.4,0.1c0.2,0,0.5-0.1,0.6-0.3c0.2-0.3,0.1-0.8-0.2-1
		c-0.3-0.2-0.5-1-0.6-1.4c0-0.1,0-0.1,0-0.1c0-0.1,0-0.2,0-0.4c0-1.2,0.9-2.2,2-2.5c0.1,0.8,0.3,2.2,1.2,3.2
		c0.6,0.7,1.5,1.1,2.5,1.2c0.4,0.8,1.2,1.2,2,1.2c0.2,0,0.5,0,0.7-0.1c0.4-0.1,0.6-0.5,0.4-0.9c-0.1-0.4-0.5-0.6-0.9-0.4
		c-0.4,0.1-0.9-0.1-1-0.5s0.1-0.9,0.5-1s0.6-0.5,0.4-0.9c-0.1-0.4-0.5-0.6-0.9-0.4c-0.8,0.3-1.3,0.9-1.4,1.6
		c-0.5-0.1-0.9-0.4-1.3-0.7c-0.9-1-0.9-2.5-0.9-2.9c0.3-0.9,1.1-1.5,2.1-1.5c0.3,0,0.5,0.1,0.7,0.1c0.2,0.7,0.6,1.9,1.5,2.4
		c0.1,0.1,0.2,0.1,0.4,0.1c0.2,0,0.5-0.1,0.6-0.3c0.2-0.3,0.1-0.8-0.2-1c-0.4-0.3-0.7-1-0.9-1.6c0.3-0.4,0.7-0.7,1.2-0.7
		c0.8,0,1.4,0.6,1.4,1.4v10c0,0.9-0.5,1.8-1.3,2.3c-1-0.5-2.7-0.8-4.4,0.5c-0.3,0.2-0.3,0.7-0.1,1c0.1,0.2,0.3,0.2,0.5,0.2
		s0.3-0.1,0.5-0.2c1.5-1.2,2.9-0.3,3-0.2l0,0l0,0c1,0.5,1.6,1.6,1.6,2.7V40c0,0.6-0.2,1.2-0.5,1.7c-0.2,0.2-1.1,1-2.7,1
		c-0.1,0-0.1,0-0.2,0l0,0c-0.4,0-0.7,0.3-0.7,0.7s0.3,0.7,0.7,0.7c0.1,0,0.1,0,0.2,0c1.4,0,2.4-0.5,3-0.9c0.1,0.3,0.2,0.6,0.2,1V49
		c0,1.4-1.2,2.5-2.6,2.5c-1.1,0-2.1-0.7-2.4-1.7c0,0,0,0,0-0.1s0-0.1-0.1-0.2c-0.1-0.1-0.7-1,0.2-2.3c0.3,0.1,0.6,0.2,0.9,0.2
		c0.7,0,1.4-0.3,1.9-1c0.2-0.3,0.2-0.7-0.2-1c-0.3-0.2-0.8-0.2-1,0.2c-0.3,0.4-0.9,0.5-1.3,0.2s-0.5-0.9-0.2-1.3
		c0.2-0.3,0.2-0.7-0.2-1c-0.3-0.2-0.8-0.2-1,0.2c-0.6,0.8-0.6,1.8-0.1,2.5c-1,1.3-0.9,2.6-0.6,3.4c-0.3,0.1-0.6,0.2-1,0.2
		c-1.4,0-2.6-1.1-2.6-2.5c0-0.1,0-0.2,0-0.4v-0.1v-0.1c-0.1-1.2,0.8-2.1,0.8-2.1c0.3-0.3,0.3-0.7,0-1s-0.7-0.3-1,0
		c0,0-1,0.9-1.2,2.3c-1.4-0.6-2.4-1.9-2.4-3.5c0-0.8,0.2-1.5,0.7-2.2l0,0c0-0.1,0.1-0.1,0.1-0.2c0.5-1.4,2-1.8,2.9-1.8
		c0.2,2,1.9,3.5,4,3.5c2.2,0,4-1.8,4-4c0-0.7-0.2-1.3-0.5-1.9c0.7-0.3,1.3-0.9,1.6-1.6c0.1-0.4,0-0.8-0.4-0.9
		c-0.4-0.1-0.8,0-0.9,0.4c-0.3,0.7-1.1,1.1-1.9,0.8s-1.1-1.1-0.9-1.9c0.1-0.4,0-0.8-0.4-0.9s-0.8,0-0.9,0.4
		c-0.6,1.5,0.2,3.1,1.7,3.6c0.2,0.1,0.4,0.1,0.6,0.1l0,0c0.4,0.5,0.6,1.1,0.6,1.7c0,1.4-1.2,2.6-2.6,2.6s-2.6-1.1-2.6-2.6
		c0-0.8,0.3-1.5,1-2c0.3-0.2,0.3-0.7,0.1-1c-0.2-0.3-0.7-0.3-1-0.1c-0.7,0.6-1.2,1.3-1.4,2.1c-1,0.1-3,0.4-3.9,2.1
		C18.5,38.3,17.9,37.4,17.9,36.3z"/>
</g>
</svg>
