<?xml version="1.0" encoding="utf-8"?>
<!-- Generator: Adobe Illustrator 24.0.3, SVG Export Plug-In . SVG Version: 6.00 Build 0)  -->
<svg version="1.1" xmlns="http://www.w3.org/2000/svg" xmlns:xlink="http://www.w3.org/1999/xlink" x="0px" y="0px"
	 viewBox="0 0 70 70" style="enable-background:new 0 0 70 70;" xml:space="preserve">
<style type="text/css">
	.st0{fill:#223A7F;}
	.st1{fill:#C64492;}
	.st2{fill:#C29100;}
	.st3{fill:#841E6B;}
	.st4{fill-rule:evenodd;clip-rule:evenodd;fill:url(#SVGID_1_);}
	.st5{fill-rule:evenodd;clip-rule:evenodd;fill:#282829;}
	.st6{fill:#2B2A29;}
	.st7{fill-rule:evenodd;clip-rule:evenodd;fill:url(#SVGID_2_);}
	.st8{fill:#D8EDF1;}
	.st9{fill:#CFE3E7;}
</style>
<g id="Layer_1">
	<g id="Layer_2_1_">
		<g>
			<path class="st0" d="M35,70c-10,0-19.5-4.3-26.1-11.7C3.2,51.9,0,43.6,0,35C0,15.7,15.7,0,35,0c8.6,0,16.9,3.2,23.3,8.9
				C65.7,15.5,70,25,70,35C70,54.3,54.3,70,35,70"/>
			<path class="st1" d="M64.7,35c0,1.2-0.1,2.4-0.2,3.5c-0.1,0.4-0.1,0.9-0.2,1.3c-0.2,1.4-0.6,2.8-1,4.1C59.8,55,50,63.4,38,64.5
				c-1,0.1-2,0.1-3,0.1c-1.4,0-2.8-0.1-4.2-0.3c-0.6-0.1-1.2-0.2-1.8-0.3c-6.4-1.3-12-4.6-16.2-9.3c0,0-0.1-0.1-0.1-0.2
				c-4.6-5.1-7.4-12-7.4-19.5C5.3,18.6,18.6,5.3,35,5.3c7.5,0,14.4,2.8,19.6,7.4c0,0,0.1,0.1,0.2,0.1C60.9,18.3,64.7,26.2,64.7,35"
				/>
			<path class="st2" d="M15.2,57.1L15.2,57.1L15.2,57.1 M12.7,54.6c0.8,0.9,1.6,1.7,2.5,2.5c-0.8-0.7-1.6-1.5-2.3-2.3
				C12.8,54.7,12.8,54.7,12.7,54.6 M11.8,53.5L11.8,53.5L11.8,53.5 M11.7,53.5C11.7,53.5,11.8,53.5,11.7,53.5
				C11.8,53.5,11.7,53.5,11.7,53.5 M11.7,53.4L11.7,53.4L11.7,53.4 M11.6,53.3C11.6,53.3,11.7,53.3,11.6,53.3
				C11.7,53.3,11.6,53.3,11.6,53.3 M11.6,53.2C11.6,53.3,11.6,53.3,11.6,53.2C11.6,53.3,11.6,53.3,11.6,53.2 M21.5,8.5
				C11.9,13.4,5.3,23.4,5.3,35c0,6.9,2.3,13.2,6.3,18.2c-3.9-5-6.3-11.4-6.3-18.2C5.3,23.5,11.9,13.4,21.5,8.5"/>
			<path class="st3" d="M35,5.3c-4.8,0-9.4,1.2-13.5,3.2C11.9,13.4,5.3,23.5,5.3,35c0,6.9,2.3,13.2,6.3,18.2l0,0c0,0,0,0,0,0.1l0,0
				c0,0,0,0,0,0.1l0,0l0,0l0,0l0,0c0,0,0,0,0,0.1l0,0c0.3,0.4,0.6,0.7,0.9,1.1l0.1,0.1c0.7,0.8,1.5,1.6,2.3,2.3l0,0l0,0
				c0.2,0.2,0.4,0.4,0.6,0.5c-4.4-5.2-7-11.9-7-19.2c0-16.4,13.3-29.7,29.7-29.7c7.3,0,14,2.6,19.2,7C52.2,9.4,44.1,5.3,35,5.3"/>
		</g>
	</g>
</g>
<g id="Layer_3">
	
		<radialGradient id="SVGID_1_" cx="-264.0222" cy="458.8866" r="0.5164" gradientTransform="matrix(-128.795 0 0 128.795 -33974.6484 -59070.5625)" gradientUnits="userSpaceOnUse">
		<stop  offset="0" style="stop-color:#FFE28E"/>
		<stop  offset="1" style="stop-color:#F9B86C"/>
	</radialGradient>
	<path class="st4" d="M36.4,15.4c-11.6,0-21,9.4-21,21s9.4,21,21,21c11.6,0,21-9.4,21-21S48,15.4,36.4,15.4L36.4,15.4z"/>
	<path class="st5" d="M37.1,28.8c-0.7-0.1-1.3,0.4-1.5,1.2c-0.1,0.8,0.3,1.5,1,1.6c0.7,0.1,1.3-0.4,1.5-1.2
		C38.2,29.6,37.8,28.9,37.1,28.8z"/>
	<path class="st5" d="M26.1,26.4c-0.7-0.1-1.4,0.4-1.5,1.3c-0.1,0.8,0.3,1.6,1,1.7c0.7,0.1,1.4-0.4,1.5-1.3
		C27.3,27.3,26.8,26.5,26.1,26.4L26.1,26.4z"/>
	<path class="st6" d="M35.5,29.3c-0.4-0.1-0.6-0.5-0.5-0.8c0.1-0.4,0.5-0.6,0.8-0.5l5.4,1.3c0.4,0.1,0.6,0.5,0.5,0.8
		c-0.1,0.4-0.5,0.6-0.8,0.5L35.5,29.3L35.5,29.3z"/>
	<path class="st6" d="M24.2,26.9c-0.4-0.1-0.6-0.5-0.5-0.8c0.1-0.4,0.5-0.6,0.8-0.5l5.4,1.3c0.4,0.1,0.6,0.5,0.5,0.8
		c-0.1,0.4-0.5,0.6-0.8,0.5L24.2,26.9z"/>
	
		<radialGradient id="SVGID_2_" cx="-268.7656" cy="466.8138" r="0.5164" gradientTransform="matrix(-38.4302 -0.3394 -0.3001 33.9826 -10154.5537 -15909.7178)" gradientUnits="userSpaceOnUse">
		<stop  offset="0" style="stop-color:#D4F2FF"/>
		<stop  offset="1" style="stop-color:#FEFEFE"/>
	</radialGradient>
	<path class="st7" d="M20.3,46.6c3.1,2.6,9.6,4.2,13.7,4.1c4.4-0.1,5.8-10.2,3.7-13.1c-2.7-3.8-11-5.2-14.9-4.1
		C19.5,34.3,17.1,43.9,20.3,46.6L20.3,46.6z"/>
	<path class="st8" d="M20.7,46.2c1.4,1.2,3.6,2.1,5.9,2.8c2.6,0.8,5.3,1.2,7.4,1.1c0.5,0,0.9-0.2,1.3-0.5c0.9-0.7,1.7-1.9,2.1-3.5
		c0.5-1.6,0.7-3.3,0.7-4.9c0-1.5-0.3-2.7-0.8-3.5c-1.2-1.6-3.5-2.8-6-3.5c-3-0.8-6.3-1-8.4-0.4c-0.5,0.1-0.9,0.5-1.3,1
		c-0.9,1-1.6,2.7-1.9,4.4c-0.4,1.7-0.5,3.6-0.1,5C19.8,45.1,20.1,45.8,20.7,46.2L20.7,46.2z M26.2,50c-2.4-0.7-4.7-1.7-6.2-3
		c-0.7-0.6-1.2-1.4-1.4-2.4c-0.4-1.6-0.4-3.6,0.1-5.5c0.4-1.9,1.2-3.7,2.2-4.9c0.6-0.7,1.2-1.1,1.9-1.3c2.2-0.6,5.7-0.5,8.9,0.4
		c2.7,0.8,5.3,2.1,6.6,3.9c0.6,0.9,1,2.4,1,4.1c0,1.7-0.2,3.6-0.7,5.2c-0.5,1.7-1.4,3.2-2.5,4c-0.6,0.4-1.2,0.6-1.9,0.7
		C31.8,51.3,28.9,50.8,26.2,50L26.2,50z"/>
	<path class="st8" d="M38.6,41.8c-0.4,0-0.7-0.3-0.7-0.7c0-0.4,0.3-0.7,0.7-0.7c3.9,0.2,7.6-0.4,10.8-1.9c3-1.4,5.5-3.5,7.5-6.4
		c0.2-0.3,0.6-0.4,1-0.2c0.3,0.2,0.4,0.6,0.2,1c-2.1,3.2-4.9,5.5-8,6.9C46.6,41.4,42.7,42,38.6,41.8z"/>
	<path class="st8" d="M20.1,35c0.3,0.2,0.5,0.6,0.3,0.9c-0.2,0.3-0.6,0.5-0.9,0.3c-1.4-0.7-2.4-1.6-3.1-2.6
		c-0.9-1.3-1.2-2.7-1.1-3.7c0-0.4,0.4-0.7,0.7-0.6c0.4,0,0.7,0.4,0.6,0.7c-0.1,0.8,0.2,1.8,0.8,2.8C18.1,33.6,18.9,34.4,20.1,35
		L20.1,35z"/>
	<path class="st8" d="M37.6,48.2c-0.4-0.1-0.6-0.5-0.5-0.8c0.1-0.4,0.5-0.6,0.8-0.5c3.6,0.9,7.2,1.1,10.6,0.3
		c2.9-0.7,5.6-2.2,7.8-4.7c0.3-0.3,0.7-0.3,1-0.1c0.3,0.3,0.3,0.7,0.1,1c-2.4,2.7-5.3,4.3-8.5,5.1C45.2,49.3,41.3,49.1,37.6,48.2
		L37.6,48.2z"/>
	<path class="st8" d="M19.2,41.6c0.4,0.1,0.5,0.6,0.4,0.9c-0.1,0.4-0.6,0.5-0.9,0.4c-1.5-0.6-2.5-1.5-3.2-2.5
		c-0.9-1.2-1.3-2.6-1.2-3.7c0-0.4,0.3-0.7,0.7-0.7c0.4,0,0.7,0.3,0.7,0.7c0,0.8,0.2,1.8,1,2.8C17.1,40.3,18,41.1,19.2,41.6
		L19.2,41.6z"/>
	<path class="st9" d="M32.6,40.4c0.4,0,0.7,0.4,0.6,0.7c0,0.4-0.4,0.7-0.7,0.6c-1.3-0.1-2.6-0.3-3.9-0.7c-1.3-0.4-2.7-0.9-4-1.5
		c-0.3-0.2-0.5-0.6-0.3-0.9c0.2-0.3,0.6-0.5,0.9-0.3c1.3,0.6,2.5,1.1,3.7,1.4C30.2,40.1,31.4,40.3,32.6,40.4z"/>
	<path class="st9" d="M31.6,44.4c0.4,0,0.7,0.4,0.6,0.7c0,0.4-0.4,0.7-0.7,0.6c-1.3-0.1-2.6-0.3-3.9-0.7c-1.3-0.4-2.7-0.9-4-1.5
		c-0.3-0.2-0.5-0.6-0.3-0.9c0.2-0.3,0.6-0.5,0.9-0.3c1.3,0.6,2.5,1.1,3.7,1.4C29.2,44.1,30.4,44.3,31.6,44.4L31.6,44.4z"/>
</g>
</svg>
