<?xml version="1.0" encoding="utf-8"?>
<!-- Generator: Adobe Illustrator 24.0.3, SVG Export Plug-In . SVG Version: 6.00 Build 0)  -->
<svg version="1.1" id="Layer_1" xmlns="http://www.w3.org/2000/svg" xmlns:xlink="http://www.w3.org/1999/xlink" x="0px" y="0px"
	 viewBox="0 0 70 70" style="enable-background:new 0 0 70 70;" xml:space="preserve">
<style type="text/css">
	.st0{fill:#2CBCE7;}
	.st1{fill:#A3C616;}
	.st2{fill:#C29100;}
	.st3{fill:#1D5D2A;}
	.st4{fill-rule:evenodd;clip-rule:evenodd;fill:url(#SVGID_1_);}
	.st5{fill-rule:evenodd;clip-rule:evenodd;fill:#282829;}
	.st6{fill-rule:evenodd;clip-rule:evenodd;fill:url(#SVGID_2_);}
	.st7{fill:#FED788;}
</style>
<g id="Layer_1_1_">
	<g id="Layer_2_1_">
		<g>
			<path class="st0" d="M35,70c-10,0-19.5-4.3-26.1-11.7C3.2,51.9,0,43.6,0,35C0,15.7,15.7,0,35,0c8.6,0,16.9,3.2,23.3,8.9
				C65.7,15.5,70,25,70,35C70,54.3,54.3,70,35,70"/>
			<path class="st1" d="M64.7,35c0,1.2-0.1,2.4-0.2,3.5c-0.1,0.4-0.1,0.9-0.2,1.3c-0.2,1.4-0.6,2.8-1,4.1C59.8,55,50,63.4,38,64.5
				c-1,0.1-2,0.1-3,0.1c-1.4,0-2.8-0.1-4.2-0.3c-0.6-0.1-1.2-0.2-1.8-0.3c-6.4-1.3-12-4.6-16.2-9.3c0,0-0.1-0.1-0.1-0.2
				c-4.6-5.1-7.4-12-7.4-19.5C5.3,18.6,18.6,5.3,35,5.3c7.5,0,14.4,2.8,19.6,7.4c0,0,0.1,0.1,0.2,0.1C60.9,18.3,64.7,26.2,64.7,35"
				/>
			<path class="st2" d="M15.2,57.1L15.2,57.1L15.2,57.1 M12.7,54.6c0.8,0.9,1.6,1.7,2.5,2.5c-0.8-0.7-1.6-1.5-2.3-2.3
				C12.8,54.7,12.8,54.7,12.7,54.6 M11.8,53.5L11.8,53.5L11.8,53.5 M11.7,53.5C11.7,53.5,11.8,53.5,11.7,53.5
				C11.8,53.5,11.7,53.5,11.7,53.5 M11.7,53.4L11.7,53.4L11.7,53.4 M11.6,53.3C11.6,53.3,11.7,53.3,11.6,53.3
				C11.7,53.3,11.6,53.3,11.6,53.3 M11.6,53.2C11.6,53.3,11.6,53.3,11.6,53.2C11.6,53.3,11.6,53.3,11.6,53.2 M21.5,8.5
				C11.9,13.4,5.3,23.4,5.3,35c0,6.9,2.3,13.2,6.3,18.2c-3.9-5-6.3-11.4-6.3-18.2C5.3,23.5,11.9,13.4,21.5,8.5"/>
			<path class="st3" d="M35,5.3c-4.8,0-9.4,1.2-13.5,3.2C11.9,13.4,5.3,23.5,5.3,35c0,6.9,2.3,13.2,6.3,18.2l0,0c0,0,0,0,0,0.1l0,0
				c0,0,0,0,0,0.1l0,0l0,0l0,0l0,0c0,0,0,0,0,0.1l0,0c0.3,0.4,0.6,0.7,0.9,1.1l0.1,0.1c0.7,0.8,1.5,1.6,2.3,2.3l0,0l0,0
				c0.2,0.2,0.4,0.4,0.6,0.5c-4.4-5.2-7-11.9-7-19.2c0-16.4,13.3-29.7,29.7-29.7c7.3,0,14,2.6,19.2,7C52.2,9.4,44.1,5.3,35,5.3"/>
		</g>
	</g>
</g>
<g id="Layer_2_2_">
	
		<radialGradient id="SVGID_1_" cx="-519.9904" cy="6.0096" r="0.5177" gradientTransform="matrix(128.795 0 0 128.792 67010.1875 -744.3368)" gradientUnits="userSpaceOnUse">
		<stop  offset="0" style="stop-color:#FFE28E"/>
		<stop  offset="1" style="stop-color:#FAC07D"/>
	</radialGradient>
	<path class="st4" d="M35.9,15.4c11.6,0,21,9.4,21,21s-9.4,21-21,21s-21-9.4-21-21C14.9,24.8,24.3,15.4,35.9,15.4L35.9,15.4z"/>
	<path class="st5" d="M36.8,36.8c-4.6,2.2-0.3,9.7,7.4,8c7.3-1.6,8.4-9.9,3.9-10.4c-2-0.2-3.7,1.4-5.8,1.8
		C40.4,36.6,38.5,36,36.8,36.8z"/>
	
		<linearGradient id="SVGID_2_" gradientUnits="userSpaceOnUse" x1="41.2425" y1="813.1727" x2="40.162" y2="821.6823" gradientTransform="matrix(1 0 0 1 0 -772)">
		<stop  offset="0" style="stop-color:#EE7B78"/>
		<stop  offset="1" style="stop-color:#65221D"/>
	</linearGradient>
	<path class="st6" d="M40.9,45.2c1.8,0.2,5.1-0.3,3.3-2.7c-0.6-0.8-1.6-1.4-2.9-1.6c-1.3-0.1-2.3,0.3-3.1,0.8
		C35.4,43.8,39.1,45,40.9,45.2L40.9,45.2z"/>
	<path class="st7" d="M37,37.2c-1,0.5-1.5,1.2-1.6,2c-0.1,0.6,0,1.2,0.3,1.8s0.7,1.2,1.4,1.8c1.5,1.3,3.9,2.1,6.9,1.5
		c2.8-0.6,4.6-2.2,5.5-4c0.4-0.8,0.6-1.6,0.7-2.3c0-0.7-0.1-1.4-0.4-1.9c-0.4-0.6-1-1.1-1.8-1.1c-1-0.1-2,0.4-3.1,0.9
		c-0.8,0.4-1.6,0.8-2.5,0.9c-0.8,0.2-1.6,0.1-2.4,0.1C38.9,36.8,37.9,36.8,37,37.2L37,37.2z M34.4,39.1c0.1-1.2,0.8-2.2,2.1-2.8
		c1.1-0.5,2.2-0.5,3.4-0.5c0.7,0,1.5,0,2.2-0.1c0.8-0.2,1.5-0.5,2.3-0.9c1.2-0.6,2.3-1.1,3.6-0.9c1.2,0.1,2.1,0.8,2.6,1.7
		c0.4,0.7,0.6,1.5,0.5,2.5c0,0.9-0.3,1.8-0.8,2.8c-1,2-3.1,3.9-6.2,4.5c-3.3,0.7-6.1-0.2-7.8-1.7c-0.7-0.6-1.3-1.4-1.6-2.1
		C34.5,40.7,34.4,39.9,34.4,39.1L34.4,39.1z"/>
	<path class="st5" d="M34.9,28.8c0.8-0.1,1.6,0.5,1.8,1.5s-0.4,1.8-1.2,2c-0.8,0.1-1.6-0.5-1.8-1.5C33.6,29.8,34.1,28.9,34.9,28.8
		L34.9,28.8z"/>
	<path class="st5" d="M46.7,26.4c0.8-0.1,1.6,0.5,1.8,1.5s-0.4,1.8-1.2,2c-0.8,0.1-1.6-0.5-1.8-1.5S45.9,26.6,46.7,26.4z"/>
</g>
</svg>
